<?xml version="1.0" encoding="utf-8"?>
<!-- Generator: Adobe Illustrator 26.0.2, SVG Export Plug-In . SVG Version: 6.00 Build 0)  -->
<svg version="1.1" id="Layer_1" xmlns="http://www.w3.org/2000/svg" xmlns:xlink="http://www.w3.org/1999/xlink" x="0px" y="0px"
	 viewBox="0 0 595.28 841.89" style="enable-background:new 0 0 595.28 841.89;" xml:space="preserve">
<style type="text/css">
	.st0{fill:#FEBF3C;}
	.st1{fill:#EE3424;}
	.st2{fill:#231F20;}
	.st3{fill:#FFFFFF;}
</style>
<g>
	<ellipse transform="matrix(0.7071 -0.7071 0.7071 0.7071 -201.7031 337.0465)" class="st0" cx="306" cy="412" rx="202" ry="202"/>
	<g>
		<path class="st1" d="M143.28,336.56c3.33,0,116.7,48.9,116.7,48.9s-25.08,41.32-63.35,33.34
			C143.28,407.69,143.28,336.56,143.28,336.56z"/>
		<path class="st1" d="M468.72,336.56c-3.34,0-116.7,48.9-116.7,48.9s25.08,41.32,63.35,33.34
			C468.72,407.69,468.72,336.56,468.72,336.56z"/>
	</g>
	<g>
		<path class="st2" d="M377.86,547.08H234.15c-26.27,0-47.57-21.3-47.57-47.57l0,0c0-26.27,21.3-47.57,47.57-47.57h143.71
			c26.27,0,47.56,21.3,47.56,47.57l0,0C425.42,525.79,404.12,547.08,377.86,547.08z"/>
		<g>
			<rect x="236.85" y="451.95" class="st3" width="38.43" height="42.34"/>
			<path class="st3" d="M383.51,504.75v41.99c21.89-2.59,39.22-20.04,41.62-41.99H383.51z"/>
			<path class="st3" d="M383.51,494.29h41.62c-2.4-21.95-19.73-39.4-41.62-41.99V494.29z"/>
			<rect x="285.74" y="451.95" class="st3" width="38.43" height="42.34"/>
			<rect x="334.62" y="504.75" class="st3" width="38.42" height="42.34"/>
			<rect x="236.85" y="504.75" class="st3" width="38.43" height="42.34"/>
			<path class="st3" d="M226.39,494.29v-41.7c-20.89,3.43-37.2,20.46-39.52,41.7H226.39z"/>
			<rect x="285.74" y="504.75" class="st3" width="38.43" height="42.34"/>
			<path class="st3" d="M226.39,504.75h-39.52c2.32,21.24,18.63,38.27,39.52,41.7V504.75z"/>
			<rect x="334.62" y="451.95" class="st3" width="38.42" height="42.34"/>
		</g>
	</g>
	<path class="st2" d="M264.99,342.27L197,303.02c-5.58-3.22-7.51-10.42-4.29-16l0,0c3.22-5.58,10.42-7.51,16-4.29l67.99,39.25
		c5.58,3.22,7.51,10.42,4.29,16l0,0C277.77,343.57,270.57,345.5,264.99,342.27z"/>
	<path class="st2" d="M346.58,343.77l65.74-42.91c5.39-3.52,6.93-10.82,3.41-16.21l0,0c-3.52-5.4-10.82-6.93-16.21-3.41
		l-65.74,42.91c-5.39,3.52-6.93,10.82-3.41,16.21l0,0C333.89,345.76,341.18,347.29,346.58,343.77z"/>
</g>
</svg>
