<?xml version="1.0" encoding="utf-8"?>
<!-- Generator: Adobe Illustrator 26.0.2, SVG Export Plug-In . SVG Version: 6.00 Build 0)  -->
<svg version="1.1" id="Layer_1" xmlns="http://www.w3.org/2000/svg" xmlns:xlink="http://www.w3.org/1999/xlink" x="0px" y="0px"
	 viewBox="0 0 595.28 841.89" style="enable-background:new 0 0 595.28 841.89;" xml:space="preserve">
<style type="text/css">
	.st0{fill:#FEBF3C;}
	.st1{fill:#231F20;}
	.st2{fill:#FFFFFF;}
</style>
<g>
	
		<ellipse transform="matrix(0.7071 -0.7071 0.7071 0.7071 -217.2029 330.6266)" class="st0" cx="290.5" cy="427.5" rx="227.5" ry="227.5"/>
	<g>
		<g>
			<path class="st1" d="M196.59,354.17c0,21.46-17.4,38.86-38.86,38.86s-38.86-17.4-38.86-38.86c0-21.46,17.4-38.86,38.86-38.86
				S196.59,332.7,196.59,354.17z"/>
			<path class="st2" d="M164.68,348.03c0,9.49-7.69,17.18-17.18,17.18c-9.49,0-17.18-7.69-17.18-17.18
				c0-9.49,7.69-17.18,17.18-17.18C156.99,330.85,164.68,338.54,164.68,348.03z"/>
		</g>
		<g>
			<path class="st1" d="M462.14,354.17c0,21.46-17.4,38.86-38.86,38.86c-21.46,0-38.86-17.4-38.86-38.86
				c0-21.46,17.4-38.86,38.86-38.86C444.74,315.31,462.14,332.7,462.14,354.17z"/>
			<path class="st2" d="M430.23,348.03c0,9.49-7.69,17.18-17.18,17.18c-9.49,0-17.18-7.69-17.18-17.18
				c0-9.49,7.69-17.18,17.18-17.18C422.54,330.85,430.23,338.54,430.23,348.03z"/>
		</g>
	</g>
	<path class="st1" d="M410.71,464.6c-4.57-0.91-9.02,2.08-9.93,6.65c-0.04,0.2-4.2,20.41-19.77,41.33
		c-20.62,27.71-31.3,44.59-90.51,47.66c-48.48-0.66-69.89-19.95-90.51-47.66c-15.53-20.87-19.71-41.04-19.76-41.32
		c-0.9-4.58-5.32-7.56-9.91-6.67c-4.58,0.89-7.58,5.33-6.69,9.92c0.19,0.95,4.73,23.59,22.31,47.52
		c16.22,22.07,55.03,54.59,104.57,54.59c56.79,0,88.35-32.52,104.57-54.59c17.58-23.92,22.12-46.57,22.31-47.52
		C418.27,469.92,415.28,465.5,410.71,464.6z"/>
</g>
</svg>
