<?xml version="1.0" encoding="utf-8"?>
<!-- Generator: Adobe Illustrator 26.0.2, SVG Export Plug-In . SVG Version: 6.00 Build 0)  -->
<svg version="1.1" id="Layer_1" xmlns="http://www.w3.org/2000/svg" xmlns:xlink="http://www.w3.org/1999/xlink" x="0px" y="0px"
	 viewBox="0 0 595.28 841.89" style="enable-background:new 0 0 595.28 841.89;" xml:space="preserve">
<style type="text/css">
	.st0{fill:#FEBF3C;}
	.st1{fill:#EE3424;}
	.st2{fill:#231F20;}
</style>
<g>
	<ellipse transform="matrix(0.7071 -0.7071 0.7071 0.7071 -201.7028 337.047)" class="st0" cx="306" cy="412" rx="212" ry="212"/>
	<path class="st1" d="M278.72,323.03c-31.37-32.18-72.47,8.6-72.47,8.6s-40.66-41.23-72.38-9.38
		c-38.19,38.35,71.75,125.96,71.75,125.96S316.5,361.79,278.72,323.03z"/>
	<path class="st1" d="M476.17,323.03c-31.37-32.18-72.47,8.6-72.47,8.6s-40.66-41.23-72.38-9.38
		c-38.19,38.35,71.75,125.96,71.75,125.96S513.95,361.79,476.17,323.03z"/>
	<g>
		<path class="st2" d="M308.66,551.98c-58.33,0-71.88-38.67-72.01-39.06c-1.16-3.47,0.72-7.23,4.2-8.39
			c3.46-1.15,7.2,0.71,8.37,4.16c0.26,0.7,11.76,30.03,59.44,30.03c41.71,0,53.74-29.07,54.23-30.3c1.35-3.39,5.19-5.07,8.58-3.74
			c3.4,1.33,5.09,5.13,3.78,8.54C374.65,514.79,359.76,551.98,308.66,551.98z"/>
	</g>
</g>
</svg>
